<?xml version="1.0" encoding="UTF-8"?>
<svg xmlns="http://www.w3.org/2000/svg" xmlns:xlink="http://www.w3.org/1999/xlink" width="40px" height="39px" viewBox="0 0 39 39" version="1.1">
<g id="surface1">
<path style=" stroke:none;fill-rule:nonzero;fill:rgb(90.196078%,74.117647%,21.568627%);fill-opacity:1;" d="M 37.5 11.949219 C 36.019531 8.4375 33.546875 5.453125 30.429688 3.34375 C 28.875 2.289062 27.15625 1.453125 25.324219 0.878906 C 23.488281 0.308594 21.535156 0 19.519531 0 C 16.832031 0 14.257812 0.546875 11.921875 1.539062 C 11.597656 1.675781 11.277344 1.824219 10.960938 1.976562 C 10.292969 2.304688 9.644531 2.667969 9.019531 3.070312 C 9.019531 3.070312 9.015625 3.070312 9.015625 3.074219 C 8.863281 3.171875 8.773438 3.339844 8.773438 3.523438 L 8.773438 3.957031 C 8.773438 5.09375 9.335938 6.148438 10.261719 6.785156 C 10.269531 6.777344 10.28125 6.773438 10.289062 6.765625 L 10.296875 6.804688 C 10.367188 6.851562 10.441406 6.898438 10.515625 6.945312 L 17.976562 11.144531 L 17.984375 11.144531 L 17.984375 11.148438 L 25.324219 15.28125 C 25.621094 15.449219 25.804688 15.761719 25.804688 16.105469 L 25.804688 19.546875 C 25.804688 19.894531 25.613281 20.21875 25.304688 20.382812 L 21.367188 22.441406 C 21.136719 22.570312 20.988281 22.808594 20.988281 23.074219 L 20.988281 27.941406 L 21.003906 27.949219 L 29.003906 23.410156 C 29.785156 22.953125 30.261719 22.121094 30.261719 21.214844 L 30.261719 14.414062 C 30.261719 13.503906 29.773438 12.664062 28.984375 12.210938 L 15.1875 4.378906 C 16.5625 3.988281 18.011719 3.777344 19.519531 3.777344 C 21.699219 3.777344 23.769531 4.21875 25.652344 5.015625 C 28.472656 6.214844 30.886719 8.21875 32.582031 10.738281 C 33.433594 12 34.105469 13.386719 34.566406 14.867188 C 35.023438 16.351562 35.269531 17.925781 35.269531 19.566406 C 35.269531 21.75 34.832031 23.824219 34.035156 25.710938 C 33.1875 27.710938 31.945312 29.5 30.398438 30.980469 C 31.417969 31.84375 32.078125 33.050781 32.273438 34.367188 C 33.578125 33.238281 34.730469 31.9375 35.695312 30.503906 C 36.746094 28.941406 37.582031 27.21875 38.152344 25.382812 C 38.726562 23.542969 39.03125 21.585938 39.03125 19.566406 C 39.035156 16.867188 38.488281 14.289062 37.5 11.949219 Z M 37.5 11.949219 "/>
<path style=" stroke:none;fill-rule:nonzero;fill:rgb(90.196078%,74.117647%,21.568627%);fill-opacity:1;" d="M 28.777344 32.34375 C 28.777344 32.34375 28.683594 32.28125 28.683594 32.28125 C 28.628906 32.246094 28.582031 32.214844 28.523438 32.183594 L 21.003906 27.949219 L 20.988281 27.941406 L 13.714844 23.84375 C 13.417969 23.675781 13.230469 23.359375 13.230469 23.019531 L 13.230469 19.574219 C 13.230469 19.226562 13.421875 18.90625 13.730469 18.742188 L 17.601562 16.65625 C 17.835938 16.53125 17.980469 16.289062 17.980469 16.023438 L 17.980469 11.144531 L 17.976562 11.144531 L 10.03125 15.71875 C 9.25 16.171875 8.769531 17.007812 8.769531 17.910156 L 8.769531 24.710938 C 8.769531 25.625 9.257812 26.464844 10.050781 26.914062 L 23.847656 34.746094 C 22.472656 35.136719 21.019531 35.351562 19.511719 35.351562 C 17.335938 35.351562 15.265625 34.910156 13.382812 34.109375 C 10.558594 32.914062 8.148438 30.90625 6.449219 28.386719 C 5.601562 27.128906 4.925781 25.738281 4.46875 24.257812 C 4.007812 22.773438 3.761719 21.199219 3.761719 19.558594 C 3.761719 17.375 4.203125 15.300781 5 13.414062 C 5.84375 11.414062 7.089844 9.625 8.632812 8.148438 C 7.617188 7.28125 6.953125 6.074219 6.761719 4.761719 C 5.457031 5.886719 4.300781 7.1875 3.335938 8.625 C 2.285156 10.183594 1.449219 11.90625 0.878906 13.742188 C 0.304688 15.582031 0 17.539062 0 19.558594 C 0 22.253906 0.546875 24.835938 1.535156 27.175781 C 3.015625 30.6875 5.492188 33.671875 8.605469 35.78125 C 10.160156 36.832031 11.882812 37.667969 13.714844 38.242188 C 15.546875 38.816406 17.5 39.125 19.515625 39.125 C 22.207031 39.125 24.777344 38.574219 27.113281 37.585938 C 27.4375 37.445312 27.757812 37.300781 28.074219 37.144531 C 28.800781 36.792969 29.496094 36.394531 30.167969 35.957031 C 30.226562 35.917969 30.261719 35.851562 30.261719 35.78125 L 30.261719 35.167969 C 30.265625 34.03125 29.703125 32.976562 28.777344 32.34375 Z M 28.777344 32.34375 "/>
</g>
</svg>
