<?xml version="1.0" encoding="utf-8"?>
<!-- Generator: Adobe Illustrator 28.0.0, SVG Export Plug-In . SVG Version: 6.00 Build 0)  -->
<svg version="1.1" id="Layer_1" xmlnsSvg="http://www.w3.org/2000/svg"
	 xmlns="http://www.w3.org/2000/svg" xmlnsXlink="http://www.w3.org/1999/xlink" x="0px" y="0px" viewBox="0 0 445.5 124.8"
	 style="enable-background:new 0 0 445.5 124.8;" xmlSpace="preserve">
<style type="text/css">
	.st0{fill:#FFFFFF;}
	.st1{fill:#E6BD37;}
</style>
<g>
	<g id="svg_2">
		<path id="svg_3" class="st0" d="M210.7,36.1c4.2,0,6.4,2.1,6.4,6.1v7.3c0,1-0.1,1.8-0.2,2.5c-0.1,0.7-0.4,1.3-0.6,1.8
			c-0.3,0.5-0.7,1-1.2,1.3c-0.5,0.4-1.2,0.8-2,1.2l-42.7,22.5c-0.5,0.3-0.7,0.7-0.7,1.2v0.6c0,0.5,0.3,0.7,0.8,0.7h44.3
			c1.2,0,1.9,0.6,1.9,1.8v7.7c0,1.2-0.6,1.8-1.9,1.8h-52.2c-2.3,0-3.9-0.5-4.9-1.5c-1-1-1.5-2.5-1.5-4.6v-7.3c0-1,0.1-1.8,0.2-2.5
			c0.1-0.7,0.3-1.3,0.6-1.8s0.6-0.9,1.1-1.3c0.5-0.4,1.1-0.8,1.9-1.2l42.5-22.6c0.5-0.3,0.7-0.7,0.7-1.2v-0.6c0-0.5-0.3-0.7-0.8-0.7
			h-43.9c-1.2,0-1.9-0.6-1.9-1.8v-7.7c0-1.2,0.6-1.8,1.9-1.8L210.7,36.1C210.7,36.1,210.7,36.1,210.7,36.1z"/>
		<path id="svg_4" class="st0" d="M271.9,36.1c4.1,0,7.6,0.4,10.5,1.2s5.2,2,7,3.7c1.8,1.7,3.1,3.9,3.9,6.6c0.8,2.7,1.2,6,1.2,9.8
			v13.9c0,3.9-0.4,7.2-1.2,9.9c-0.8,2.7-2.1,4.9-3.9,6.6c-1.8,1.7-4.1,2.9-7,3.7c-2.9,0.8-6.4,1.1-10.5,1.1h-24.9
			c-4.1,0-7.6-0.4-10.4-1.1c-2.9-0.8-5.2-2-7-3.7s-3.1-3.9-3.9-6.6c-0.8-2.7-1.2-6-1.2-9.9V57.4c0-3.9,0.4-7.2,1.2-9.8
			s2.1-4.9,3.9-6.6c1.8-1.7,4.1-2.9,7-3.7c2.9-0.8,6.3-1.2,10.4-1.2C246.9,36.1,271.9,36.1,271.9,36.1z M236.7,70.4
			c0,2.1,0.2,3.9,0.5,5.3s0.9,2.6,1.7,3.4c0.8,0.8,1.9,1.4,3.3,1.8c1.4,0.4,3.1,0.5,5.2,0.5h24c2.1,0,3.8-0.2,5.2-0.5
			c1.4-0.4,2.5-0.9,3.3-1.8s1.4-2,1.7-3.4s0.5-3.2,0.5-5.3V58.3c0-2.1-0.2-3.9-0.5-5.3s-0.9-2.6-1.7-3.4c-0.8-0.8-1.9-1.4-3.3-1.8
			s-3.1-0.5-5.2-0.5h-24c-2.1,0-3.8,0.2-5.2,0.5c-1.4,0.3-2.5,0.9-3.3,1.8c-0.8,0.8-1.4,2-1.7,3.4c-0.4,1.4-0.5,3.2-0.5,5.3
			C236.7,58.3,236.7,70.4,236.7,70.4z"/>
		<path id="svg_5" class="st0" d="M350.2,36.1c6.2,0,10.6,1.4,13.3,4.2c2.7,2.8,4,6.9,4,12.4v4.6c0,4.6-0.9,8.3-2.8,11
			c-1.9,2.7-5,4.4-9.2,5.2l13.8,17.1c0.3,0.3,0.4,0.7,0.2,1.2c-0.1,0.5-0.5,0.8-1.3,0.8h-10.4c-0.7,0-1.2-0.1-1.5-0.2
			c-0.3-0.2-0.5-0.4-0.8-0.8l-12.8-16.8h-26.1v16.1c0,1.2-0.6,1.8-1.8,1.8h-8.7c-1.2,0-1.9-0.6-1.9-1.8V38.6c0-1.6,0.8-2.4,2.4-2.4
			L350.2,36.1L350.2,36.1L350.2,36.1z M316.8,64.9h30.9c2.7,0,4.7-0.6,5.8-1.8s1.7-3,1.7-5.4v-3.4c0-2.4-0.6-4.2-1.7-5.4
			s-3.1-1.8-5.8-1.8h-29.9c-0.7,0-1,0.3-1,1L316.8,64.9L316.8,64.9L316.8,64.9z"/>
		<path id="svg_6" class="st0" d="M423,36.1c4.1,0,7.6,0.4,10.5,1.2s5.2,2,7,3.7c1.8,1.7,3.1,3.9,3.9,6.6c0.8,2.7,1.2,6,1.2,9.8
			v13.9c0,3.9-0.4,7.2-1.2,9.9c-0.8,2.7-2.1,4.9-3.9,6.6c-1.8,1.7-4.1,2.9-7,3.7c-2.9,0.8-6.4,1.1-10.5,1.1H398
			c-4.1,0-7.6-0.4-10.4-1.1c-2.9-0.8-5.2-2-7-3.7c-1.8-1.7-3.1-3.9-4-6.6c-0.8-2.7-1.2-6-1.2-9.9V57.4c0-3.9,0.4-7.2,1.2-9.8
			s2.1-4.9,4-6.6c1.8-1.7,4.1-2.9,7-3.7s6.3-1.2,10.4-1.2C398,36.1,423,36.1,423,36.1z M387.8,70.4c0,2.1,0.2,3.9,0.5,5.3
			s0.9,2.6,1.7,3.4c0.8,0.8,1.9,1.4,3.3,1.8s3.1,0.5,5.2,0.5h24c2.1,0,3.8-0.2,5.2-0.5c1.4-0.4,2.5-0.9,3.3-1.8s1.4-2,1.7-3.4
			s0.5-3.2,0.5-5.3V58.3c0-2.1-0.2-3.9-0.5-5.3s-0.9-2.6-1.7-3.4c-0.8-0.8-1.9-1.4-3.3-1.8s-3.1-0.5-5.2-0.5h-24
			c-2.1,0-3.8,0.2-5.2,0.5c-1.4,0.3-2.5,0.9-3.3,1.8c-0.8,0.8-1.4,2-1.7,3.4c-0.4,1.4-0.5,3.2-0.5,5.3
			C387.8,58.3,387.8,70.4,387.8,70.4z"/>
	</g>
	<g>
		<path id="svg_7" class="st1" d="M119.9,38.1c-4.7-11.2-12.7-20.7-22.6-27.5c-5-3.4-10.5-6-16.3-7.9C75.1,1,68.9,0,62.4,0
			c-8.6,0-16.8,1.8-24.3,4.9c-1,0.4-2.1,0.9-3.1,1.4c-2.1,1-4.2,2.2-6.2,3.5c0,0,0,0,0,0c-0.5,0.3-0.8,0.8-0.8,1.4v1.4
			c0,3.6,1.8,7,4.8,9c0,0,0.1,0,0.1-0.1l0,0.1c0.2,0.2,0.5,0.3,0.7,0.4l23.9,13.4l0,0v0L81,48.8c0.9,0.5,1.5,1.5,1.5,2.6v11
			c0,1.1-0.6,2.1-1.6,2.7l-12.6,6.6c-0.7,0.4-1.2,1.2-1.2,2v15.5l0.1,0l25.6-14.5c2.5-1.4,4-4.1,4-7V46c0-2.9-1.6-5.6-4.1-7L48.6,14
			c4.4-1.2,9-1.9,13.9-1.9c7,0,13.6,1.4,19.6,4c9,3.8,16.7,10.2,22.2,18.3c2.7,4,4.9,8.4,6.3,13.2c1.5,4.7,2.3,9.8,2.3,15
			c0,7-1.4,13.6-4,19.6c-2.7,6.4-6.7,12.1-11.6,16.8c3.2,2.8,5.4,6.6,6,10.8c4.2-3.6,7.9-7.8,10.9-12.3c3.4-5,6-10.5,7.9-16.3
			c1.8-5.9,2.8-12.1,2.8-18.6C124.8,53.8,123.1,45.6,119.9,38.1z"/>
		<path id="svg_8" class="st1" d="M92,103.2c0,0-0.3-0.2-0.3-0.2c-0.2-0.1-0.3-0.2-0.5-0.3L67.2,89.2l-0.1,0L43.9,76.1
			c-1-0.5-1.5-1.5-1.5-2.6v-11c0-1.1,0.6-2.1,1.6-2.7l12.4-6.7c0.7-0.4,1.2-1.2,1.2-2V35.6v0l0,0L32.1,50.2c-2.5,1.4-4,4.1-4,7v21.7
			c0,2.9,1.6,5.6,4.1,7l44.1,25c-4.4,1.2-9,1.9-13.9,1.9c-7,0-13.6-1.4-19.6-4c-9-3.8-16.7-10.2-22.2-18.3c-2.7-4-4.9-8.4-6.3-13.2
			c-1.5-4.7-2.3-9.8-2.3-15c0-7,1.4-13.6,4-19.6c2.7-6.4,6.7-12.1,11.6-16.8c-3.2-2.8-5.4-6.6-6-10.8c-4.2,3.6-7.9,7.8-10.9,12.3
			c-3.4,5-6,10.5-7.9,16.3C1,49.7,0,56,0,62.4C0,71,1.7,79.3,4.9,86.7c4.7,11.2,12.7,20.7,22.6,27.5c5,3.4,10.5,6,16.3,7.9
			c5.9,1.8,12.1,2.8,18.6,2.8c8.6,0,16.8-1.8,24.3-4.9c1-0.4,2.1-0.9,3.1-1.4c2.3-1.1,4.6-2.4,6.7-3.8c0.2-0.1,0.3-0.3,0.3-0.6l0,0
			v-2C96.8,108.6,95,105.2,92,103.2L92,103.2z"/>
	</g>
</g>
</svg>
