<svg width="208" height="208" viewBox="0 0 208 208" fill="none" xmlns="http://www.w3.org/2000/svg">
<g clip-path="url(#clip0_27_8)">
<path d="M60.2507 126.47C59.1924 126.47 58.334 125.611 58.334 124.553V87.4928C58.334 86.4346 59.1924 85.5762 60.2507 85.5762C61.3089 85.5762 62.1673 86.4346 62.1673 87.4928V124.553C62.1673 125.612 61.3093 126.47 60.2507 126.47Z" fill="url(#paint0_linear_27_8)" stroke="#221707" stroke-width="1.5"/>
<path d="M60.2507 143.767C59.1924 143.767 58.334 142.909 58.334 141.851V136.835C58.334 135.776 59.1924 134.918 60.2507 134.918C61.3089 134.918 62.1673 135.776 62.1673 136.835V141.851C62.1673 142.909 61.3093 143.767 60.2507 143.767Z" fill="url(#paint1_linear_27_8)" stroke="#221707" stroke-width="1.5"/>
<path d="M143.636 112.378C143.636 114.418 141.982 116.072 139.941 116.072C137.901 116.072 136.247 114.418 136.247 112.378C136.247 110.337 137.901 108.683 139.941 108.683C141.982 108.683 143.636 110.337 143.636 112.378Z" fill="url(#paint2_linear_27_8)" stroke="#221707" stroke-width="1.5"/>
<mask id="path-4-inside-1_27_8" fill="white">
<path d="M197.612 93.612C192.806 93.612 188.753 96.8938 187.572 101.333H167.173C166.515 98.6853 164.377 96.6164 161.686 96.0742V79.6271H183.39C184.862 79.6271 186.056 78.4329 186.056 76.9604V59.9116C190.496 58.7311 193.778 54.6782 193.778 49.872C193.778 44.144 189.118 39.484 183.39 39.484C177.662 39.484 173.002 44.144 173.002 49.872C173.002 54.6782 176.284 58.7311 180.723 59.9116V74.2938H161.686V68.0102C161.686 66.5378 160.492 65.3436 159.019 65.3436H154.5V46.6667C154.5 45.1942 153.305 44 151.833 44H133.706V27.2769H148.088C149.269 31.7164 153.322 34.9982 158.128 34.9982C163.856 34.9982 168.516 30.3382 168.516 24.6102C168.516 18.8822 163.856 14.2222 158.128 14.2222C153.322 14.2222 149.269 17.504 148.088 21.9436H131.04C129.567 21.9436 128.373 23.1378 128.373 24.6102V40.2542C123.189 33.7222 115.444 29.3156 106.667 28.5667V20.4276C111.106 19.2471 114.388 15.1942 114.388 10.388C114.388 4.66 109.728 0 104 0C98.272 0 93.612 4.66 93.612 10.388C93.612 15.1942 96.8938 19.2471 101.333 20.4276V28.5667C92.556 29.316 84.8111 33.7222 79.6271 40.2547V24.6102C79.6271 23.1378 78.4329 21.9436 76.9604 21.9436H59.9116C58.7311 17.504 54.6782 14.2222 49.872 14.2222C44.144 14.2222 39.484 18.8822 39.484 24.6102C39.484 30.3382 44.144 34.9982 49.872 34.9982C54.6782 34.9982 58.7311 31.7164 59.9116 27.2769H74.2938V44H53.9489C46.5938 44 40.6102 49.9836 40.6102 57.3387V57.3404V74.2942H27.2769V59.912C31.7164 58.7316 34.9982 54.6787 34.9982 49.8724C34.9982 44.1444 30.3382 39.4844 24.6102 39.4844C18.8822 39.4844 14.2222 44.144 14.2222 49.872C14.2222 54.6782 17.504 58.7311 21.9436 59.9116V76.9604C21.9436 78.4329 23.1378 79.6271 24.6102 79.6271H40.6102V101.333H20.4276C19.2471 96.8938 15.1942 93.612 10.388 93.612C4.66 93.612 0 98.272 0 104C0 109.728 4.66 114.388 10.388 114.388C15.1942 114.388 19.2471 111.106 20.4276 106.667H40.6102V128.373H24.6102C23.1378 128.373 21.9436 129.567 21.9436 131.04V148.088C17.504 149.269 14.2222 153.322 14.2222 158.128C14.2222 163.856 18.8822 168.516 24.6102 168.516C30.3382 168.516 34.9982 163.856 34.9982 158.128C34.9982 153.322 31.7164 149.269 27.2769 148.088V133.706H40.6102V148C40.6102 156.823 47.7876 164 56.6102 164H74.2938V180.723H59.9116C58.7311 176.284 54.6782 173.002 49.872 173.002C44.144 173.002 39.484 177.662 39.484 183.39C39.484 189.118 44.144 193.778 49.872 193.778C54.6782 193.778 58.7311 190.496 59.9116 186.056H76.9604C78.4329 186.056 79.6271 184.862 79.6271 183.39V164H101.333V187.572C96.8938 188.753 93.612 192.806 93.612 197.612C93.612 203.34 98.272 208 104 208C109.728 208 114.388 203.34 114.388 197.612C114.388 192.806 111.106 188.753 106.667 187.572V164H128.373V183.39C128.373 184.862 129.567 186.056 131.04 186.056H148.088C149.269 190.496 153.322 193.778 158.128 193.778C163.856 193.778 168.516 189.118 168.516 183.39C168.516 177.662 163.856 173.002 158.128 173.002C153.322 173.002 149.269 176.284 148.088 180.723H133.706V164H159.019C160.492 164 161.686 162.806 161.686 161.333V133.706H180.723V148.088C176.284 149.269 173.002 153.322 173.002 158.128C173.002 163.856 177.662 168.516 183.39 168.516C189.118 168.516 193.778 163.856 193.778 158.128C193.778 153.322 190.496 149.269 186.056 148.088V131.04C186.056 129.567 184.862 128.373 183.39 128.373H162.743C165.451 127.368 167.39 124.765 167.39 121.711V106.667H187.572C188.753 111.106 192.806 114.388 197.612 114.388C203.34 114.388 208 109.728 208 104C208 98.272 203.34 93.612 197.612 93.612ZM178.335 49.872C178.335 47.0849 180.603 44.8173 183.39 44.8173C186.177 44.8173 188.444 47.0844 188.444 49.872C188.444 52.6596 186.177 54.9267 183.39 54.9267C180.603 54.9267 178.335 52.6591 178.335 49.872ZM19.5556 49.872C19.5556 47.0849 21.8231 44.8173 24.6102 44.8173C27.3973 44.8173 29.6649 47.0849 29.6649 49.872C29.6649 52.6591 27.3973 54.9267 24.6102 54.9267C21.8231 54.9267 19.5556 52.6591 19.5556 49.872ZM29.6649 158.128C29.6649 160.915 27.3973 163.183 24.6102 163.183C21.8231 163.183 19.5556 160.916 19.5556 158.128C19.5556 155.34 21.8231 153.073 24.6102 153.073C27.3973 153.073 29.6649 155.341 29.6649 158.128ZM188.444 158.128C188.444 160.915 186.177 163.183 183.39 163.183C180.603 163.183 178.335 160.915 178.335 158.128C178.335 155.341 180.603 153.073 183.39 153.073C186.177 153.073 188.444 155.341 188.444 158.128ZM149.166 49.3333V65.3436H134.572C135.575 60.0147 135.164 54.4533 133.377 49.3333H149.166ZM98.9453 10.388C98.9453 7.60089 101.213 5.33333 104 5.33333C106.787 5.33333 109.055 7.60089 109.055 10.388C109.055 13.1751 106.787 15.4427 104 15.4427C101.213 15.4427 98.9453 13.1756 98.9453 10.388ZM104 33.7778C120.308 33.7778 132.772 49.44 129.126 65.3436H115.967C115.384 59.9142 110.539 58.0916 105.952 56.8284V47.6507C107.858 47.9987 109.676 48.812 111.222 50.0116C113.37 51.5067 115.91 48.312 114.12 46.4738C111.834 44.4871 108.927 43.288 105.925 43.0902V40.0449C105.925 37.784 102.422 37.7751 102.388 40.0449V42.9849C96.5284 43.4476 92.4458 47.2098 92.4458 52.1622C92.4458 58.072 97.1391 59.8764 102.388 61.3213V65.3436H78.8742C75.2289 49.4449 87.6876 33.7778 104 33.7778ZM110.639 65.3436H105.952V62.3991C108.235 63.0676 109.938 63.8791 110.639 65.3436ZM102.415 47.4524V55.9098C99.6391 55.076 97.5347 54.2227 97.5347 51.8422C97.5342 49.4382 99.4453 47.7249 102.415 47.4524ZM53.9489 49.3333H74.6227C72.8356 54.4538 72.4249 60.0147 73.428 65.3436H53.9169C53.8773 65.3409 53.8378 65.3396 53.7982 65.3387C49.4676 65.2596 45.9436 61.6711 45.9431 57.3382C45.9436 52.9244 49.5347 49.3333 53.9489 49.3333ZM109.055 197.612C109.055 200.399 106.787 202.667 104 202.667C101.213 202.667 98.9453 200.399 98.9453 197.612C98.9453 194.825 101.213 192.557 104 192.557C106.787 192.557 109.055 194.824 109.055 197.612ZM156.352 158.667H56.6102C50.7289 158.667 45.9436 153.881 45.9436 148V67.9769C48.068 69.584 50.6827 70.5742 53.5102 70.6667C53.5889 70.6738 53.6676 70.6769 53.7471 70.6769H156.352V95.9329H138.383C129.315 95.9329 121.938 103.31 121.938 112.377C121.938 121.445 129.315 128.822 138.383 128.822H156.352V158.667H156.352ZM162.056 121.711C162.056 122.692 161.259 123.489 160.279 123.489H138.383C132.256 123.489 127.272 118.504 127.272 112.378C127.272 106.251 132.256 101.267 138.383 101.267H160.279C161.259 101.267 162.056 102.064 162.056 103.044V121.711Z"/>
</mask>
<path d="M197.612 93.612C192.806 93.612 188.753 96.8938 187.572 101.333H167.173C166.515 98.6853 164.377 96.6164 161.686 96.0742V79.6271H183.39C184.862 79.6271 186.056 78.4329 186.056 76.9604V59.9116C190.496 58.7311 193.778 54.6782 193.778 49.872C193.778 44.144 189.118 39.484 183.39 39.484C177.662 39.484 173.002 44.144 173.002 49.872C173.002 54.6782 176.284 58.7311 180.723 59.9116V74.2938H161.686V68.0102C161.686 66.5378 160.492 65.3436 159.019 65.3436H154.5V46.6667C154.5 45.1942 153.305 44 151.833 44H133.706V27.2769H148.088C149.269 31.7164 153.322 34.9982 158.128 34.9982C163.856 34.9982 168.516 30.3382 168.516 24.6102C168.516 18.8822 163.856 14.2222 158.128 14.2222C153.322 14.2222 149.269 17.504 148.088 21.9436H131.04C129.567 21.9436 128.373 23.1378 128.373 24.6102V40.2542C123.189 33.7222 115.444 29.3156 106.667 28.5667V20.4276C111.106 19.2471 114.388 15.1942 114.388 10.388C114.388 4.66 109.728 0 104 0C98.272 0 93.612 4.66 93.612 10.388C93.612 15.1942 96.8938 19.2471 101.333 20.4276V28.5667C92.556 29.316 84.8111 33.7222 79.6271 40.2547V24.6102C79.6271 23.1378 78.4329 21.9436 76.9604 21.9436H59.9116C58.7311 17.504 54.6782 14.2222 49.872 14.2222C44.144 14.2222 39.484 18.8822 39.484 24.6102C39.484 30.3382 44.144 34.9982 49.872 34.9982C54.6782 34.9982 58.7311 31.7164 59.9116 27.2769H74.2938V44H53.9489C46.5938 44 40.6102 49.9836 40.6102 57.3387V57.3404V74.2942H27.2769V59.912C31.7164 58.7316 34.9982 54.6787 34.9982 49.8724C34.9982 44.1444 30.3382 39.4844 24.6102 39.4844C18.8822 39.4844 14.2222 44.144 14.2222 49.872C14.2222 54.6782 17.504 58.7311 21.9436 59.9116V76.9604C21.9436 78.4329 23.1378 79.6271 24.6102 79.6271H40.6102V101.333H20.4276C19.2471 96.8938 15.1942 93.612 10.388 93.612C4.66 93.612 0 98.272 0 104C0 109.728 4.66 114.388 10.388 114.388C15.1942 114.388 19.2471 111.106 20.4276 106.667H40.6102V128.373H24.6102C23.1378 128.373 21.9436 129.567 21.9436 131.04V148.088C17.504 149.269 14.2222 153.322 14.2222 158.128C14.2222 163.856 18.8822 168.516 24.6102 168.516C30.3382 168.516 34.9982 163.856 34.9982 158.128C34.9982 153.322 31.7164 149.269 27.2769 148.088V133.706H40.6102V148C40.6102 156.823 47.7876 164 56.6102 164H74.2938V180.723H59.9116C58.7311 176.284 54.6782 173.002 49.872 173.002C44.144 173.002 39.484 177.662 39.484 183.39C39.484 189.118 44.144 193.778 49.872 193.778C54.6782 193.778 58.7311 190.496 59.9116 186.056H76.9604C78.4329 186.056 79.6271 184.862 79.6271 183.39V164H101.333V187.572C96.8938 188.753 93.612 192.806 93.612 197.612C93.612 203.34 98.272 208 104 208C109.728 208 114.388 203.34 114.388 197.612C114.388 192.806 111.106 188.753 106.667 187.572V164H128.373V183.39C128.373 184.862 129.567 186.056 131.04 186.056H148.088C149.269 190.496 153.322 193.778 158.128 193.778C163.856 193.778 168.516 189.118 168.516 183.39C168.516 177.662 163.856 173.002 158.128 173.002C153.322 173.002 149.269 176.284 148.088 180.723H133.706V164H159.019C160.492 164 161.686 162.806 161.686 161.333V133.706H180.723V148.088C176.284 149.269 173.002 153.322 173.002 158.128C173.002 163.856 177.662 168.516 183.39 168.516C189.118 168.516 193.778 163.856 193.778 158.128C193.778 153.322 190.496 149.269 186.056 148.088V131.04C186.056 129.567 184.862 128.373 183.39 128.373H162.743C165.451 127.368 167.39 124.765 167.39 121.711V106.667H187.572C188.753 111.106 192.806 114.388 197.612 114.388C203.34 114.388 208 109.728 208 104C208 98.272 203.34 93.612 197.612 93.612ZM178.335 49.872C178.335 47.0849 180.603 44.8173 183.39 44.8173C186.177 44.8173 188.444 47.0844 188.444 49.872C188.444 52.6596 186.177 54.9267 183.39 54.9267C180.603 54.9267 178.335 52.6591 178.335 49.872ZM19.5556 49.872C19.5556 47.0849 21.8231 44.8173 24.6102 44.8173C27.3973 44.8173 29.6649 47.0849 29.6649 49.872C29.6649 52.6591 27.3973 54.9267 24.6102 54.9267C21.8231 54.9267 19.5556 52.6591 19.5556 49.872ZM29.6649 158.128C29.6649 160.915 27.3973 163.183 24.6102 163.183C21.8231 163.183 19.5556 160.916 19.5556 158.128C19.5556 155.34 21.8231 153.073 24.6102 153.073C27.3973 153.073 29.6649 155.341 29.6649 158.128ZM188.444 158.128C188.444 160.915 186.177 163.183 183.39 163.183C180.603 163.183 178.335 160.915 178.335 158.128C178.335 155.341 180.603 153.073 183.39 153.073C186.177 153.073 188.444 155.341 188.444 158.128ZM149.166 49.3333V65.3436H134.572C135.575 60.0147 135.164 54.4533 133.377 49.3333H149.166ZM98.9453 10.388C98.9453 7.60089 101.213 5.33333 104 5.33333C106.787 5.33333 109.055 7.60089 109.055 10.388C109.055 13.1751 106.787 15.4427 104 15.4427C101.213 15.4427 98.9453 13.1756 98.9453 10.388ZM104 33.7778C120.308 33.7778 132.772 49.44 129.126 65.3436H115.967C115.384 59.9142 110.539 58.0916 105.952 56.8284V47.6507C107.858 47.9987 109.676 48.812 111.222 50.0116C113.37 51.5067 115.91 48.312 114.12 46.4738C111.834 44.4871 108.927 43.288 105.925 43.0902V40.0449C105.925 37.784 102.422 37.7751 102.388 40.0449V42.9849C96.5284 43.4476 92.4458 47.2098 92.4458 52.1622C92.4458 58.072 97.1391 59.8764 102.388 61.3213V65.3436H78.8742C75.2289 49.4449 87.6876 33.7778 104 33.7778ZM110.639 65.3436H105.952V62.3991C108.235 63.0676 109.938 63.8791 110.639 65.3436ZM102.415 47.4524V55.9098C99.6391 55.076 97.5347 54.2227 97.5347 51.8422C97.5342 49.4382 99.4453 47.7249 102.415 47.4524ZM53.9489 49.3333H74.6227C72.8356 54.4538 72.4249 60.0147 73.428 65.3436H53.9169C53.8773 65.3409 53.8378 65.3396 53.7982 65.3387C49.4676 65.2596 45.9436 61.6711 45.9431 57.3382C45.9436 52.9244 49.5347 49.3333 53.9489 49.3333ZM109.055 197.612C109.055 200.399 106.787 202.667 104 202.667C101.213 202.667 98.9453 200.399 98.9453 197.612C98.9453 194.825 101.213 192.557 104 192.557C106.787 192.557 109.055 194.824 109.055 197.612ZM156.352 158.667H56.6102C50.7289 158.667 45.9436 153.881 45.9436 148V67.9769C48.068 69.584 50.6827 70.5742 53.5102 70.6667C53.5889 70.6738 53.6676 70.6769 53.7471 70.6769H156.352V95.9329H138.383C129.315 95.9329 121.938 103.31 121.938 112.377C121.938 121.445 129.315 128.822 138.383 128.822H156.352V158.667H156.352ZM162.056 121.711C162.056 122.692 161.259 123.489 160.279 123.489H138.383C132.256 123.489 127.272 118.504 127.272 112.378C127.272 106.251 132.256 101.267 138.383 101.267H160.279C161.259 101.267 162.056 102.064 162.056 103.044V121.711Z" fill="url(#paint3_linear_27_8)" stroke="#221707" stroke-width="3" mask="url(#path-4-inside-1_27_8)"/>
</g>
<defs>
<linearGradient id="paint0_linear_27_8" x1="60.2507" y1="84.8262" x2="60.2507" y2="127.22" gradientUnits="userSpaceOnUse">
<stop stop-color="#DFBE52"/>
<stop offset="0.0617" stop-color="#DFBE52"/>
<stop offset="0.1856" stop-color="#DFBE52"/>
<stop offset="0.2649" stop-color="#DFBE52"/>
<stop offset="1" stop-color="#BE722B"/>
</linearGradient>
<linearGradient id="paint1_linear_27_8" x1="60.2507" y1="134.168" x2="60.2507" y2="144.517" gradientUnits="userSpaceOnUse">
<stop stop-color="#DFBE52"/>
<stop offset="0.0617" stop-color="#DFBE52"/>
<stop offset="0.1856" stop-color="#DFBE52"/>
<stop offset="0.2649" stop-color="#DFBE52"/>
<stop offset="1" stop-color="#BE722B"/>
</linearGradient>
<linearGradient id="paint2_linear_27_8" x1="139.941" y1="107.933" x2="139.941" y2="116.822" gradientUnits="userSpaceOnUse">
<stop stop-color="#DFBE52"/>
<stop offset="0.0617" stop-color="#DFBE52"/>
<stop offset="0.1856" stop-color="#DFBE52"/>
<stop offset="0.2649" stop-color="#DFBE52"/>
<stop offset="1" stop-color="#BE722B"/>
</linearGradient>
<linearGradient id="paint3_linear_27_8" x1="104" y1="0" x2="104" y2="208" gradientUnits="userSpaceOnUse">
<stop stop-color="#DFBE52"/>
<stop offset="0.0617" stop-color="#DFBE52"/>
<stop offset="0.1856" stop-color="#DFBE52"/>
<stop offset="0.2649" stop-color="#DFBE52"/>
<stop offset="1" stop-color="#BE722B"/>
</linearGradient>
<clipPath id="clip0_27_8">
<rect width="208" height="208" fill="white"/>
</clipPath>
</defs>
</svg>
